<svg xmlns="http://www.w3.org/2000/svg" width="51.072" height="51.072" viewBox="0 0 51.072 51.072">
  <g id="그룹_19421" data-name="그룹 19421" transform="translate(-140.014 -70.004)">
    <path id="패스_17230" data-name="패스 17230" d="M401.826,124.262h3.588a.748.748,0,0,0,0-1.5h-3.588a.748.748,0,1,0,0,1.5Z" transform="translate(-229.318 -46.345)" fill="#383e60"/>
    <path id="패스_17231" data-name="패스 17231" d="M401.826,155.562h9.436a.748.748,0,0,0,0-1.5h-9.436a.748.748,0,1,0,0,1.5Z" transform="translate(-229.318 -73.839)" fill="#383e60"/>
    <path id="패스_17232" data-name="패스 17232" d="M412.013,186.116a.748.748,0,0,0-.748-.748h-9.436a.748.748,0,1,0,0,1.5h9.436A.749.749,0,0,0,412.013,186.116Z" transform="translate(-229.321 -101.335)" fill="#383e60"/>
    <path id="패스_17233" data-name="패스 17233" d="M450.165,246.48h-4.051a.748.748,0,0,0,0,1.5h4.051a.748.748,0,1,0,0-1.5Z" transform="translate(-268.22 -155.016)" fill="#383e60"/>
    <path id="패스_17234" data-name="패스 17234" d="M424.97,217.416a.748.748,0,0,0-.748-.748H416.58a.748.748,0,1,0,0,1.5h7.642A.75.75,0,0,0,424.97,217.416Z" transform="translate(-242.277 -128.829)" fill="#383e60"/>
    <path id="패스_17236" data-name="패스 17236" d="M189.8,110.188a1.286,1.286,0,0,0,1.284-1.284v-4.372a1.286,1.286,0,0,0-1.284-1.284h-2.18V77.379a1.252,1.252,0,0,0-.368-.89L181.158,70.4l0,0-.022-.022a1.249,1.249,0,0,0-.888-.368H161.2a1.259,1.259,0,0,0-1.258,1.258V83.236l-1.7-1.14a2.034,2.034,0,0,0-2.273,0l-6.184,4.2a.748.748,0,0,0,.84,1.238l6.181-4.193a.539.539,0,0,1,.6,0l15.068,10.106a.925.925,0,0,1,.323,1.165.943.943,0,0,1-1.369.38l-13.906-9.328a.749.749,0,0,0-.837,0l-13.717,9.313A.943.943,0,0,1,141.6,94.6a.922.922,0,0,1,.321-1.159l6.256-4.246a.748.748,0,1,0-.839-1.238L141.081,92.2a2.415,2.415,0,0,0-.838,3.029,2.456,2.456,0,0,0,3.57.984l.777-.528v16.748a1.391,1.391,0,0,0,1.389,1.388H156.1v.524a1.286,1.286,0,0,0,1.284,1.284h1.934v4.16a1.286,1.286,0,0,0,1.284,1.284h22.305a.748.748,0,0,0,0-1.5h-4.265v-3.947h10.947v3.947h-3.7a.748.748,0,0,0,0,1.5H189.8a1.286,1.286,0,0,0,1.284-1.284V115.42a1.285,1.285,0,0,0-1.284-1.284h-1.934v-3.946H189.8Zm-8.6-37.63,3.862,3.861H181.2ZM169.631,95.584l.968.649a2.463,2.463,0,0,0,3.56-.995,2.413,2.413,0,0,0-.848-3.037l-11.87-7.961V71.5h18.267V76.66a1.26,1.26,0,0,0,1.258,1.258h5.161v25.333h-16.5Zm.408,14.6h3.889v3.947h-3.889Zm-9.225-1.5v-3.946h10.947v3.946Zm12.444,0v-3.946h3.889v3.946ZM156.1,109.975v2.351H146.082V94.671l11.029-7.487,11.023,7.394v8.67H160.6a1.286,1.286,0,0,0-1.284,1.284v4.159h-1.934a1.285,1.285,0,0,0-1.284,1.283Zm1.5,4.16v-3.947h10.947v3.947Zm14.165,5.444H160.813v-3.947H171.76v3.947Zm5.386,0h-3.889v-3.947h3.889Zm9.225-5.444H175.424v-3.947h10.947v3.947Zm-7.729-5.443v-3.946h10.947v3.946Z" transform="translate(0 0)" fill="#383e60"/>
  </g>
</svg>
