<svg xmlns="http://www.w3.org/2000/svg" width="60" height="60" viewBox="0 0 60 60">
  <g id="icon" transform="translate(-718 -1172)">
    <rect id="area" width="60" height="60" transform="translate(718 1172)" fill="none"/>
    <path id="패스_10478" data-name="패스 10478" d="M132.377,44.089h0A14.084,14.084,0,0,0,118.312,30.02a1.006,1.006,0,1,1,0-2.013,16.1,16.1,0,0,1,16.079,16.082,1.007,1.007,0,1,1-2.013,0Zm-4.278,0h0a9.8,9.8,0,0,0-9.787-9.791,1.007,1.007,0,1,1,0-2.013,11.816,11.816,0,0,1,11.8,11.8,1.007,1.007,0,1,1-2.013,0Zm-2.264,0h0a1.007,1.007,0,1,1-2.013,0,5.518,5.518,0,0,0-5.51-5.514,1.006,1.006,0,1,1,0-2.013,7.533,7.533,0,0,1,7.523,7.527Z" transform="translate(632.224 1155.379)" fill="#f36a23"/>
    <path id="패스_10479" data-name="패스 10479" d="M132.955,54.3l-5.8-4.212c-1.734-1.258-3.15.348-4,1.308-1.184,1.344-1.434,1.362-1.848,1.068a49.7,49.7,0,0,1-6.23-5.305,49.746,49.746,0,0,1-5.305-6.23c-.293-.413-.276-.663,1.068-1.848.96-.846,2.566-2.262,1.308-4l-4.212-5.8c-1.2-1.655-2.787-1.379-4.034-.954A12.826,12.826,0,0,0,99.26,31.2c-1.793,1.793-1.668,5.159.351,9.478a47.162,47.162,0,0,0,9.32,12.632,47.178,47.178,0,0,0,12.632,9.319,14.675,14.675,0,0,0,5.983,1.611,4.758,4.758,0,0,0,3.5-1.26,12.83,12.83,0,0,0,2.869-4.642c.425-1.247.7-2.833-.955-4.034ZM132,57.685a10.852,10.852,0,0,1-2.386,3.868c-1.116,1.116-3.809.835-7.2-.751a45.155,45.155,0,0,1-12.061-8.92,45.154,45.154,0,0,1-8.92-12.061c-1.587-3.394-1.867-6.086-.751-7.2a10.845,10.845,0,0,1,3.868-2.386,3.232,3.232,0,0,1,1-.213.824.824,0,0,1,.759.443l4.212,5.8c.129.178.017.4-1.009,1.3-1.056.93-2.823,2.488-1.379,4.523a51.787,51.787,0,0,0,5.524,6.489,51.759,51.759,0,0,0,6.488,5.523c2.035,1.445,3.593-.322,4.523-1.379.905-1.027,1.125-1.138,1.3-1.009l5.8,4.212c.357.259.664.482.231,1.755Z" transform="translate(631.385 1156.379)" fill="#222"/>
  </g>
</svg>
