<svg xmlns="http://www.w3.org/2000/svg" width="49.821" height="44.564" viewBox="0 0 49.821 44.564">
  <path id="패스_17190" data-name="패스 17190" d="M119.372,44.8a7.924,7.924,0,0,0-7.673,6.342l-7.821-2.087a.771.771,0,0,0-.526,0L87.58,53.261a1.083,1.083,0,0,0-.788,1.018V87.928a1.1,1.1,0,0,0,1.314,1l15.51-4.14,15.51,4.14a1.064,1.064,0,0,0,.526,0l15.773-4.206a1.083,1.083,0,0,0,.788-1V50.073a1.1,1.1,0,0,0-1.314-1.018l-7.8,2.07a7.905,7.905,0,0,0-7.722-6.325Zm0,2.1a5.886,5.886,0,0,1,5.8,6,8.312,8.312,0,0,1-.476,2.431c-1.757,3.731-3.536,7.461-5.307,11.189-1.763-3.732-3.557-7.454-5.307-11.189a8.351,8.351,0,0,1-.476-2.431,5.922,5.922,0,0,1,5.767-6Zm.016,2.629a3.155,3.155,0,1,0,3.155,3.155A3.171,3.171,0,0,0,119.389,49.531Zm-16.824,1.889v31.5L88.9,86.564v-31.5Zm2.1,0,6.851,1.824a9.8,9.8,0,0,0,.592,2.842c2.063,4.373,4.151,8.753,6.227,13.127v17.35l-13.67-3.648Zm29.442,0v31.5l-13.67,3.648V69.214c2.05-4.385,4.2-8.739,6.227-13.127a9.739,9.739,0,0,0,.592-2.842Zm-14.721.213a1.051,1.051,0,1,1-1.051,1.051A1.036,1.036,0,0,1,119.388,51.634Z" transform="translate(-86.592 -44.6)" fill="#383e60" stroke="#fff" stroke-width="0.4"/>
</svg>
