<svg xmlns="http://www.w3.org/2000/svg" width="46.626" height="46.627" viewBox="0 0 46.626 46.627">
  <path id="noun-army-helmet-4027866" d="M145.778,52.463a18.8,18.8,0,0,0-18.82,18.766c0,.02,0,.042,0,.063V74.88h-1.793a2.69,2.69,0,1,0,0,5.379h1.793V96.4a2.687,2.687,0,0,0,5.374,0V91.294a.216.216,0,0,0,.034.024,39.344,39.344,0,0,0,3.481,2.164,39.774,39.774,0,0,0,4.043,1.993,12,12,0,0,0,2.793.869,3.124,3.124,0,0,0,6.209-.072,9.934,9.934,0,0,0,2.707-.706,27.994,27.994,0,0,0,3.7-1.76,22.483,22.483,0,0,0,3.038-2.022V96.4a2.691,2.691,0,0,0,5.381,0V80.258H166.4a2.69,2.69,0,1,0,0-5.379h-1.793V71.328c0-.014,0-.024,0-.037a18.809,18.809,0,0,0-18.83-18.83Zm0,1.795a16.979,16.979,0,0,1,17.037,17.035V74.88H128.75V72.185h5.374a.9.9,0,0,0,0-1.793h-5.33a17.03,17.03,0,0,1,.186-1.793h5.145a.9.9,0,1,0,0-1.793h-4.767a16.95,16.95,0,0,1,16.42-12.548ZM125.162,76.674H166.4a.9.9,0,1,1,0,1.793H125.162a.9.9,0,1,1,0-1.793Zm3.588,3.586h1.793v8.9c0,.02,0,.043,0,.065V96.4a.9.9,0,0,1-1.793,0Zm3.579,0h26v8.969c0-.112,0,.024-.164.238a5.786,5.786,0,0,1-.821.807,20.336,20.336,0,0,1-2.931,1.972,26.518,26.518,0,0,1-3.462,1.648,8.52,8.52,0,0,1-2.408.611,3.111,3.111,0,0,0-5.567.063,11.7,11.7,0,0,1-2.4-.746,38.229,38.229,0,0,1-3.851-1.9,30.035,30.035,0,0,1-4.288-2.826,1.137,1.137,0,0,1-.107-.11Zm27.8,0h1.795V96.4a.9.9,0,0,1-1.8,0ZM145.778,94.609a1.344,1.344,0,1,1-1.343,1.345A1.327,1.327,0,0,1,145.778,94.609Z" transform="translate(-122.469 -52.461)" fill="#383e60" fill-rule="evenodd"/>
</svg>
