<svg xmlns="http://www.w3.org/2000/svg" width="50.138" height="47.61" viewBox="0 0 50.138 47.61">
  <path id="패스_10457" data-name="패스 10457" d="M129.83,74.241h12.886V73.193a4.881,4.881,0,0,1,4.87-4.87h8.2a4.881,4.881,0,0,1,4.87,4.87v1.048h12.886a2.737,2.737,0,0,1,2.713,2.713V94.34A4.412,4.412,0,0,1,172,98.718v13.071a3.157,3.157,0,0,1-3.144,3.144H134.516a3.157,3.157,0,0,1-3.144-3.144V98.718a4.37,4.37,0,0,1-4.254-4.378V76.954a2.737,2.737,0,0,1,2.713-2.713Zm18,20.962h7.645v.925h16.4a1.789,1.789,0,0,0,1.788-1.788V76.954a.133.133,0,0,0-.123-.123H129.83a.133.133,0,0,0-.123.123V94.341a1.789,1.789,0,0,0,1.788,1.788h16.4V95.2Zm7.645,3.514v3.637a3.822,3.822,0,1,1-7.645,0V98.717H133.961v13.071a.618.618,0,0,0,.617.617H168.8a.618.618,0,0,0,.617-.617V98.717Zm-5.179,0v3.637a1.356,1.356,0,0,0,2.713,0V98.717Zm-5.055-24.477h12.824V73.193a2.342,2.342,0,0,0-2.343-2.343h-8.139a2.342,2.342,0,0,0-2.343,2.343Z" transform="translate(-126.617 -67.823)" fill="#262a41" stroke="#fff" stroke-width="1" fill-rule="evenodd"/>
</svg>
