<svg xmlns="http://www.w3.org/2000/svg" width="51.329" height="68.327" viewBox="0 0 51.329 68.327">
  <g id="그룹_18824" data-name="그룹 18824" transform="translate(-92.446 -8.45)">
    <path id="패스_10448" data-name="패스 10448" d="M509.885,253.715a5.133,5.133,0,1,0-6.3,0,5.111,5.111,0,0,0-4.837,5.133v9.468a1.142,1.142,0,0,0,.627,1.015l2.179,1.141,1.3,13.016A1.14,1.14,0,0,0,504,284.515h5.476a1.14,1.14,0,0,0,1.141-1.027l1.3-13.062,2.179-1.141a1.141,1.141,0,0,0,.627-.97v-9.468a5.11,5.11,0,0,0-4.837-5.133Zm-3.148-6.845a2.851,2.851,0,1,1-2.017.835A2.853,2.853,0,0,1,506.737,246.87Zm5.7,20.738-2.11,1.061a1.142,1.142,0,0,0-.627.9l-1.255,12.662h-3.422l-1.255-12.662a1.142,1.142,0,0,0-.627-.9l-2.11-1.061v-8.761A2.852,2.852,0,0,1,503.885,256h5.7a2.851,2.851,0,0,1,2.852,2.852Z" transform="translate(-374.375 -208.038)" fill="#262a41" stroke="#f8f8f8" stroke-width="0.6"/>
    <path id="패스_10449" data-name="패스 10449" d="M298.527,304.99a4.563,4.563,0,1,0-5.864,0,4.4,4.4,0,0,0-3.913,4.4v7a1.142,1.142,0,0,0,.627,1.015l1.722.867,1.073,10.78a1.14,1.14,0,0,0,1.141,1.027h4.563a1.14,1.14,0,0,0,1.141-1.027l1.073-10.78,1.722-.867a1.142,1.142,0,0,0,.627-1.015v-7a4.4,4.4,0,0,0-3.913-4.4Zm-2.932-5.7a2.281,2.281,0,1,1-1.613.668A2.282,2.282,0,0,1,295.6,299.286Zm4.563,16.4-1.654.833a1.141,1.141,0,0,0-.627.9L296.85,327.8h-2.51l-1.027-10.381a1.141,1.141,0,0,0-.627-.9l-1.654-.833v-6.3a2.121,2.121,0,0,1,2.122-2.122h4.883a2.121,2.121,0,0,1,2.122,2.122Z" transform="translate(-191.753 -253.609)" fill="#262a41" stroke="#f8f8f8" stroke-width="0.6"/>
    <path id="패스_10450" data-name="패스 10450" d="M90.158,52.5a11.408,11.408,0,1,0,8.066,3.341A11.407,11.407,0,0,0,90.158,52.5Zm0,20.534A9.127,9.127,0,1,1,96.61,70.36,9.124,9.124,0,0,1,90.158,73.034Z" transform="translate(13.996 -38.046)" fill="#262a41" stroke="#f8f8f8" stroke-width="0.6"/>
    <path id="패스_10451" data-name="패스 10451" d="M317.233,87.751a1.141,1.141,0,0,0-1.871.878v2.282H300v2.282h16.5a1.141,1.141,0,0,0,1.141-1.141v-.993l3.924,3.274-3.924,3.274v-.993a1.141,1.141,0,0,0-1.141-1.141H300v2.282h15.363v2.282a1.143,1.143,0,0,0,1.871.878l6.845-5.7a1.142,1.142,0,0,0,0-1.757Z" transform="translate(-181.015 -68.471)" fill="#262a41" stroke="#f8f8f8" stroke-width="0.6"/>
    <path id="패스_10452" data-name="패스 10452" d="M223.313,8.75h-2.282v2.282H218.75v2.282h2.281v2.282h2.282V13.313h2.282V11.032h-2.282Z" transform="translate(-107.752)" fill="#262a41" stroke="#f8f8f8" stroke-width="0.6"/>
    <path id="패스_10453" data-name="패스 10453" d="M138.1,94.865l-2.909,1.951,1.255,1.893,3.422-2.282a1.141,1.141,0,0,0,.513-.947V87.5H138.1Z" transform="translate(-35.084 -68.48)" fill="#262a41" stroke="#f8f8f8" stroke-width="0.6"/>
  </g>
</svg>
