<svg xmlns="http://www.w3.org/2000/svg" width="60" height="60" viewBox="0 0 60 60">
  <g id="icon" transform="translate(-718 -1172)">
    <rect id="area" width="60" height="60" transform="translate(718 1172)" fill="none"/>
    <g id="icon-2" data-name="icon" transform="translate(-39.69 114.109)">
      <path id="패스_10461" data-name="패스 10461" d="M246.155,99.269H228.8a.778.778,0,0,1-.778-.778v-4.17a2.315,2.315,0,0,1,2.312-2.312h2.522a.778.778,0,0,1,0,1.556H230.33a.757.757,0,0,0-.757.757v3.392h15.8V94.322a.757.757,0,0,0-.757-.757H242.1a.778.778,0,1,1,0-1.556h2.522a2.315,2.315,0,0,1,2.312,2.312v4.169a.778.778,0,0,1-.778.778Z" transform="translate(545.214 973.599)" fill="#222"/>
      <path id="패스_10462" data-name="패스 10462" d="M187.815,159.993H155.627a2.208,2.208,0,0,1-2.206-2.206V117.824a2.208,2.208,0,0,1,2.206-2.206h7.415a.778.778,0,0,1,0,1.556h-7.415a.651.651,0,0,0-.65.65v39.963a.651.651,0,0,0,.65.65h32.189a.651.651,0,0,0,.65-.65V117.824a.651.651,0,0,0-.65-.65H180.4a.778.778,0,0,1,0-1.556h7.415a2.208,2.208,0,0,1,2.206,2.206v39.963a2.208,2.208,0,0,1-2.206,2.206Z" transform="translate(610.969 952.789)" fill="#222"/>
      <path id="패스_10463" data-name="패스 10463" d="M272.271,75.994h-9.245a.778.778,0,0,1-.778-.778V71.425A1.428,1.428,0,0,1,263.674,70h7.949a1.428,1.428,0,0,1,1.426,1.426v3.791a.778.778,0,0,1-.778.778ZM263.8,74.438h7.69V71.554H263.8Z" transform="translate(515.041 993.001)" fill="#222"/>
      <path id="패스_10464" data-name="패스 10464" d="M288.111,214.9H272.605a.778.778,0,0,1,0-1.556h15.506a.778.778,0,1,1,0,1.556Z" transform="translate(506.597 866.646)" fill="#f36a23"/>
      <path id="패스_10465" data-name="패스 10465" d="M288.111,242.311H272.605a.778.778,0,0,1,0-1.556h15.506a.778.778,0,1,1,0,1.556Z" transform="translate(506.597 842.484)" fill="#f36a23"/>
      <path id="패스_10466" data-name="패스 10466" d="M202.038,218.138a.775.775,0,0,1-.55-.228l-1.4-1.4a.778.778,0,0,1,1.1-1.1l.855.855,2.7-2.7a.778.778,0,0,1,1.1,1.1l-3.254,3.253a.774.774,0,0,1-.55.228Z" transform="translate(570.038 866.66)" fill="#f36a23"/>
      <path id="패스_10467" data-name="패스 10467" d="M288.111,296.231H272.605a.778.778,0,0,1,0-1.556h15.506a.778.778,0,1,1,0,1.556Z" transform="translate(506.597 794.956)" fill="#f36a23"/>
      <path id="패스_10468" data-name="패스 10468" d="M288.111,323.641H272.605a.778.778,0,0,1,0-1.556h15.506a.778.778,0,1,1,0,1.556Z" transform="translate(506.597 770.794)" fill="#f36a23"/>
      <path id="패스_10469" data-name="패스 10469" d="M203.881,299.326h-3.249a.778.778,0,0,1-.778-.778V295.3a.778.778,0,0,1,.778-.778h3.249a.778.778,0,0,1,.778.778v3.249A.778.778,0,0,1,203.881,299.326Zm-2.472-1.556H203.1v-1.694h-1.694Z" transform="translate(570.04 795.091)" fill="#f36a23"/>
      <path id="패스_10470" data-name="패스 10470" d="M288.111,377.551H272.605a.778.778,0,0,1,0-1.556h15.506a.778.778,0,1,1,0,1.556Z" transform="translate(506.597 723.274)" fill="#f36a23"/>
      <path id="패스_10471" data-name="패스 10471" d="M288.111,404.971H272.605a.778.778,0,0,1,0-1.556h15.506a.778.778,0,1,1,0,1.556Z" transform="translate(506.597 699.104)" fill="#f36a23"/>
      <path id="패스_10472" data-name="패스 10472" d="M203.881,380.826h-3.249a.778.778,0,0,1-.778-.778V376.8a.778.778,0,0,1,.778-.778h3.249a.778.778,0,0,1,.778.778v3.249A.778.778,0,0,1,203.881,380.826Zm-2.472-1.556H203.1v-1.694h-1.694Z" transform="translate(570.04 723.251)" fill="#f36a23"/>
      <path id="패스_10473" data-name="패스 10473" d="M481.958,185.6a.778.778,0,0,1-.778-.778v-7.191a2.377,2.377,0,0,1,2.373-2.374h.417a2.377,2.377,0,0,1,2.374,2.373v7.192a.778.778,0,0,1-.778.778Zm1.6-8.788a.82.82,0,0,0-.818.819v6.413h2.053v-6.413a.82.82,0,0,0-.819-.818Z" transform="translate(322.059 900.221)" fill="#222"/>
      <path id="패스_10474" data-name="패스 10474" d="M485.579,262.888H481.97a.778.778,0,0,1-.778-.778V250.183a.778.778,0,0,1,.778-.778h3.609a.778.778,0,0,1,.778.778v11.929a.778.778,0,0,1-.778.777Zm-2.83-1.556H484.8V250.96h-2.053Z" transform="translate(322.047 834.86)" fill="#222"/>
      <path id="패스_10475" data-name="패스 10475" d="M485.589,354.739H481.98a.778.778,0,0,1-.778-.778v-3.152a.778.778,0,0,1,.778-.778h3.609a.778.778,0,0,1,.778.778v3.152A.778.778,0,0,1,485.589,354.739Zm-2.831-1.556h2.053v-1.6h-2.053Z" transform="translate(322.039 746.161)" fill="#222"/>
      <path id="패스_10476" data-name="패스 10476" d="M485.072,383.923a.778.778,0,0,1-.72-.483l-1.632-3.988a.779.779,0,0,1,.022-.638l.866-1.758a.777.777,0,0,1,.7-.434h1.53a.776.776,0,0,1,.7.434l.867,1.758a.778.778,0,0,1,.022.638l-1.631,3.989a.776.776,0,0,1-.719.483Zm-.779-4.737.779,1.9.778-1.9-.5-1.01h-.562Z" transform="translate(320.752 722.722)" fill="#222"/>
      <path id="패스_10477" data-name="패스 10477" d="M514.981,203.4a.778.778,0,0,1-.778-.778v-7.668l-1.813-.008a.778.778,0,0,1,0-1.556h0l2.587.011a.778.778,0,0,1,.775.778v8.442a.777.777,0,0,1-.777.778Z" transform="translate(295.232 884.231)" fill="#222"/>
    </g>
  </g>
</svg>
