<svg xmlns="http://www.w3.org/2000/svg" width="52.5" height="52.064" viewBox="0 0 52.5 52.064">
  <path id="패스_10456" data-name="패스 10456" d="M139.964,37.936,133.3,13.031a.865.865,0,0,0-1.057-.61l-20.986,5.629h-22.9a.859.859,0,0,0-.859.859V44.69a.859.859,0,0,0,.859.859h2.973l-2.2,4.959a4.326,4.326,0,0,0,.163,3.833L92.32,59.8a2.557,2.557,0,0,1,.326,1.255V63.6a.859.859,0,0,0,1.719,0V61.052a4.324,4.324,0,0,0-.541-2.089L90.79,53.507a2.614,2.614,0,0,1-.1-2.3L93.2,45.549h8.035v6.016a.859.859,0,0,0,1.719,0V39.534a2.578,2.578,0,1,1,5.156,0V63.6a.859.859,0,0,0,1.719,0V49.381a5.138,5.138,0,0,0,3.437,1.324h.859a.859.859,0,0,0,.859-.859v-4.3H129.6a.859.859,0,0,0,.859-.859V41.372l8.894-2.381a.874.874,0,0,0,.61-1.057ZM105.538,31.8a3.437,3.437,0,1,1,1.007,2.431A3.439,3.439,0,0,1,105.538,31.8Zm3.412,5.156h.026a5.181,5.181,0,1,0-3.8-1.684,4.3,4.3,0,0,0-3.936,4.262v.859H96a4.306,4.306,0,0,0-3.352-3.352V26.557A4.306,4.306,0,0,0,96,23.206h25.953a4.306,4.306,0,0,0,3.352,3.352V37.042a4.306,4.306,0,0,0-3.352,3.352H109.834v-.859a4.232,4.232,0,0,0-.885-2.578Zm4.323,12.031a3.437,3.437,0,0,1-3.437-3.437h3.437Zm15.469-5.156H109.835V42.112h12.891a.859.859,0,0,0,.859-.859,2.586,2.586,0,0,1,2.578-2.578.859.859,0,0,0,.859-.859V25.784a.859.859,0,0,0-.859-.859,2.586,2.586,0,0,1-2.578-2.578.859.859,0,0,0-.859-.859h-27.5a.859.859,0,0,0-.859.859,2.586,2.586,0,0,1-2.578,2.578.859.859,0,0,0-.859.859V37.815a.859.859,0,0,0,.859.859,2.586,2.586,0,0,1,2.578,2.578.859.859,0,0,0,.859.859h6.016v1.719H89.21V19.768h39.531Zm1.719-4.237V37.815l1.367-.361a.864.864,0,0,0,.61-1.057,2.552,2.552,0,0,1,1.822-3.154.864.864,0,0,0,.61-1.057l-3.119-11.619a.881.881,0,0,0-.4-.524.865.865,0,0,0-.653-.086,2.286,2.286,0,0,1-.232.043V18.909a.859.859,0,0,0-.859-.859H117.887l13.965-3.738,6.23,23.237Zm0-3.558V22.407L133,31.886a4.283,4.283,0,0,0-1.8,1.693,4.332,4.332,0,0,0-.567,2.415Z" transform="translate(-87.49 -12.391)" fill="#262a41"/>
</svg>
