<svg xmlns="http://www.w3.org/2000/svg" width="60" height="60" viewBox="0 0 60 60">
  <g id="icon" transform="translate(-718 -1172)">
    <rect id="area" width="60" height="60" transform="translate(718 1172)" fill="none"/>
    <path id="noun-company-4200630" d="M106.957,26.238a.8.8,0,0,0-.723.8v15.5H100.1a.8.8,0,0,0-.8.8V71.2H97.029a.8.8,0,1,0,0,1.606h44.963a.8.8,0,0,0,0-1.606h-2.271V43.343a.8.8,0,0,0-.806-.8h-6.133v-15.5h0a.8.8,0,0,0-.8-.8H107.04a.8.8,0,0,0-.083,0Zm.883,1.607h23.335V71.2H124.21V62.1h0a.8.8,0,0,0-.806-.8H115.61a.8.8,0,0,0-.8.8v9.1H107.84Zm-6.936,16.3h5.329V71.2H100.9Zm31.877,0h5.333V71.2h-5.333ZM116.415,62.9H122.6v8.3h-6.188Z" transform="translate(628.498 1152.461)" fill="#222"/>
    <path id="noun-company-4200630-2" data-name="noun-company-4200630" d="M111.906,31.56h0a.8.8,0,0,0-.723.8v4.967a.8.8,0,0,0,.8.806h5.156a.8.8,0,0,0,.8-.806V32.361a.8.8,0,0,0-.8-.8h-5.156a.685.685,0,0,0-.077,0Zm9.892,0h0a.8.8,0,0,0-.723.8v4.967a.8.8,0,0,0,.8.806h5.156a.8.8,0,0,0,.806-.806V32.361a.8.8,0,0,0-.806-.8h-5.156a.685.685,0,0,0-.077,0Zm-9.009,1.607h3.544v3.361h-3.544Zm9.892,0h3.55v3.361H122.68Zm-10.7,8.227h0a.8.8,0,0,0-.8.806v4.967a.8.8,0,0,0,.8.8h5.156a.8.8,0,0,0,.8-.8V42.2a.8.8,0,0,0-.8-.806Zm9.892,0h0a.8.8,0,0,0-.8.806v4.967a.8.8,0,0,0,.8.8h5.156a.8.8,0,0,0,.806-.8V42.2a.8.8,0,0,0-.806-.806ZM112.788,43h3.544V46.36h-3.544Zm9.892,0h3.55V46.36h-3.551Zm-10.775,8.084h0a.8.8,0,0,0-.723.8v4.968a.8.8,0,0,0,.8.806h5.156a.8.8,0,0,0,.8-.806V51.884a.8.8,0,0,0-.8-.8h-5.156c-.026,0-.051,0-.077,0Zm9.892,0h0a.8.8,0,0,0-.723.8v4.968a.8.8,0,0,0,.8.806h5.156a.8.8,0,0,0,.806-.806V51.884a.8.8,0,0,0-.806-.8h-5.156c-.025,0-.051,0-.077,0Zm-9.009,1.6h3.544V56.05h-3.544Zm9.892,0h3.549V56.05h-3.55Z" transform="translate(628.498 1152.461)" fill="#f36a23"/>
  </g>
</svg>
