<svg xmlns="http://www.w3.org/2000/svg" width="62.587" height="37.355" viewBox="0 0 62.587 37.355">
  <path id="패스_10444" data-name="패스 10444" d="M155.843,161.609a8.563,8.563,0,1,0-8.563-8.563A8.549,8.549,0,0,0,155.843,161.609Zm0-16.057a7.493,7.493,0,1,1-7.493,7.493A7.505,7.505,0,0,1,155.843,145.552Zm18.809,21.332a6.5,6.5,0,1,0-6.5-6.5A6.494,6.494,0,0,0,174.652,166.885Zm0-11.851a5.429,5.429,0,1,1-5.429,5.429A5.45,5.45,0,0,1,174.652,155.034ZM137.11,166.885a6.5,6.5,0,1,0-6.5-6.5A6.494,6.494,0,0,0,137.11,166.885Zm0-11.851a5.429,5.429,0,1,1-5.429,5.429A5.45,5.45,0,0,1,137.11,155.034Zm49.317,25.232H183.14v-4.588a8.517,8.517,0,0,0-8.487-8.487,8.347,8.347,0,0,0-7.57,4.74,11.328,11.328,0,0,0-22.327,0,8.432,8.432,0,0,0-7.57-4.74,8.517,8.517,0,0,0-8.487,8.487v4.588h-3.288a.535.535,0,1,0,0,1.071h61.016a.523.523,0,0,0,.535-.535.575.575,0,0,0-.535-.535Zm-41.9,0H129.694v-4.588a7.417,7.417,0,0,1,14.833,0Zm21.638,0H145.6v-6.423a10.246,10.246,0,0,1,20.491,0v6.423Zm1.07-4.511a7.417,7.417,0,1,1,14.833,0v4.588H167.236Z" transform="translate(-124.626 -144.232)" fill="#262a41" stroke="#262a41" stroke-width="0.5"/>
</svg>
